{
  "accessors": [
    {
      "bufferView": 2,
      "componentType": 5126,
      "count": 2667,
      "max": [
        11.248760223388672,
        0.28723999857902527,
        0.1985200047492981
      ],
      "min": [
        -6.093830108642578,
        -0.28692999482154846,
        -3.3335700035095215
      ],
      "type": "VEC3"
    },
    {
      "bufferView": 2,
      "byteOffset": 32004,
      "componentType": 5126,
      "count": 2667,
      "max": [
        1.0,
        1.0,
        1.0
      ],
      "min": [
        -1.0,
        -1.0,
        -1.0
      ],
      "type": "VEC3"
    },
    {
      "bufferView": 3,
      "componentType": 5126,
      "count": 2667,
      "max": [
        1.0,
        1.0,
        1.0,
        1.0
      ],
      "min": [
        -1.0,
        -1.0,
        -1.0,
        1.0
      ],
      "type": "VEC4"
    },
    {
      "bufferView": 1,
      "componentType": 5126,
      "count": 2667,
      "max": [
        0.9955899715423584,
        0.9962900280952454
      ],
      "min": [
        0.003710000077262521,
        0.003710000077262521
      ],
      "type": "VEC2"
    },
    {
      "bufferView": 1,
      "byteOffset": 21336,
      "componentType": 5126,
      "count": 2667,
      "max": [
        0.9955899715423584,
        0.9962900280952454
      ],
      "min": [
        0.003710000077262521,
        0.003710000077262521
      ],
      "type": "VEC2"
    },
    {
      "bufferView": 1,
      "byteOffset": 42672,
      "componentType": 5126,
      "count": 2667,
      "max": [
        0.9955899715423584,
        0.9962900280952454
      ],
      "min": [
        0.003710000077262521,
        0.003710000077262521
      ],
      "type": "VEC2"
    },
    {
      "bufferView": 0,
      "componentType": 5125,
      "count": 8364,
      "type": "SCALAR"
    }
  ],
  "asset": {
    "extras": {
      "author": "Tuuttipingu (https://sketchfab.com/Tuuttipingu)",
      "license": "CC-BY-4.0 (http://creativecommons.org/licenses/by/4.0/)",
      "source": "https://sketchfab.com/3d-models/winchester-model-1873-f1f57078e79e49289e14f0a551b5b60e",
      "title": "Winchester Model 1873"
    },
    "generator": "Sketchfab-12.65.0",
    "version": "2.0"
  },
  "bufferViews": [
    {
      "buffer": 0,
      "byteLength": 33456,
      "name": "floatBufferViews",
      "target": 34963
    },
    {
      "buffer": 0,
      "byteLength": 64008,
      "byteOffset": 33456,
      "byteStride": 8,
      "name": "floatBufferViews",
      "target": 34962
    },
    {
      "buffer": 0,
      "byteLength": 64008,
      "byteOffset": 97464,
      "byteStride": 12,
      "name": "floatBufferViews",
      "target": 34962
    },
    {
      "buffer": 0,
      "byteLength": 42672,
      "byteOffset": 161472,
      "byteStride": 16,
      "name": "floatBufferViews",
      "target": 34962
    }
  ],
  "buffers": [
    {
      "byteLength": 204144,
      "uri": "scene.bin"
    }
  ],
  "images": [
    {
      "uri": "textures/1873_baseColor.png"
    },
    {
      "uri": "textures/1873_metallicRoughness.png"
    },
    {
      "uri": "textures/1873_normal.png"
    }
  ],
  "materials": [
    {
      "doubleSided": true,
      "name": "1873",
      "normalTexture": {
        "index": 2
      },
      "occlusionTexture": {
        "index": 1
      },
      "pbrMetallicRoughness": {
        "baseColorTexture": {
          "index": 0
        },
        "metallicRoughnessTexture": {
          "index": 1
        }
      }
    }
  ],
  "meshes": [
    {
      "name": "1873_0",
      "primitives": [
        {
          "attributes": {
            "NORMAL": 1,
            "POSITION": 0,
            "TANGENT": 2,
            "TEXCOORD_0": 3,
            "TEXCOORD_1": 4,
            "TEXCOORD_2": 5
          },
          "indices": 6,
          "material": 0,
          "mode": 4
        }
      ]
    }
  ],
  "nodes": [
    {
      "children": [
        1
      ],
      "matrix": [
        1.0,
        0.0,
        0.0,
        0.0,
        0.0,
        2.220446049250313e-16,
        -1.0,
        0.0,
        0.0,
        1.0,
        2.220446049250313e-16,
        0.0,
        0.0,
        0.0,
        0.0,
        1.0
      ],
      "name": "Sketchfab_model"
    },
    {
      "children": [
        2,
        4
      ],
      "name": "Root"
    },
    {
      "children": [
        3
      ],
      "matrix": [
        -0.3898500000000001,
        0.36856000000000005,
        0.84391,
        0.0,
        -0.6979300000000002,
        -0.7161000000000001,
        -0.009670000000000003,
        0.0,
        0.6007600000000001,
        -0.5927600000000001,
        0.5364,
        0.0,
        4.076250000000001,
        1.00545,
        5.903860000000001,
        1.0
      ],
      "name": "Lamp"
    },
    {
      "name": "Lamp"
    },
    {
      "children": [
        5
      ],
      "matrix": [
        1.0,
        0.0,
        0.0,
        0.0,
        0.0,
        1.0,
        0.0,
        0.0,
        0.0,
        0.0,
        1.0,
        0.0,
        -2.02885,
        -0.0,
        0.8141900000000001,
        1.0
      ],
      "name": "1873"
    },
    {
      "mesh": 0,
      "name": "1873_0"
    }
  ],
  "samplers": [
    {
      "magFilter": 9729,
      "minFilter": 9987,
      "wrapS": 10497,
      "wrapT": 10497
    }
  ],
  "scene": 0,
  "scenes": [
    {
      "name": "Sketchfab_Scene",
      "nodes": [
        0
      ]
    }
  ],
  "textures": [
    {
      "sampler": 0,
      "source": 0
    },
    {
      "sampler": 0,
      "source": 1
    },
    {
      "sampler": 0,
      "source": 2
    }
  ]
}
