{
  "accessors": [
    {
      "bufferView": 2,
      "componentType": 5126,
      "count": 700,
      "max": [
        -0.5002800226211548,
        0.030207499861717224,
        0.04874550178647041
      ],
      "min": [
        -0.5170660018920898,
        0.013342799618840218,
        0.03188079968094826
      ],
      "type": "VEC3"
    },
    {
      "bufferView": 2,
      "byteOffset": 8400,
      "componentType": 5126,
      "count": 700,
      "max": [
        1.0,
        0.9971012473106384,
        0.9971012473106384
      ],
      "min": [
        -1.0,
        -0.9971012473106384,
        -0.9971012473106384
      ],
      "type": "VEC3"
    },
    {
      "bufferView": 3,
      "componentType": 5126,
      "count": 700,
      "max": [
        0.9955040812492371,
        0.9103533029556274,
        0.9999536871910095,
        1.0
      ],
      "min": [
        -0.9998253583908081,
        -0.9784562587738037,
        -0.9999191164970398,
        1.0
      ],
      "type": "VEC4"
    },
    {
      "bufferView": 1,
      "componentType": 5126,
      "count": 700,
      "max": [
        0.20635199546813965,
        0.021018100902438164
      ],
      "min": [
        0.17138299345970154,
        2.3841900542720396e-07
      ],
      "type": "VEC2"
    },
    {
      "bufferView": 0,
      "componentType": 5125,
      "count": 3672,
      "type": "SCALAR"
    },
    {
      "bufferView": 2,
      "byteOffset": 16800,
      "componentType": 5126,
      "count": 1154,
      "max": [
        -0.5028210282325745,
        0.09819280356168747,
        0.048073701560497284
      ],
      "min": [
        -0.5146510004997253,
        0.018497899174690247,
        -0.0014952999772503972
      ],
      "type": "VEC3"
    },
    {
      "bufferView": 2,
      "byteOffset": 30648,
      "componentType": 5126,
      "count": 1154,
      "max": [
        1.0,
        0.999925971031189,
        0.999732494354248
      ],
      "min": [
        -1.0,
        -0.9998050928115845,
        -0.9999991059303284
      ],
      "type": "VEC3"
    },
    {
      "bufferView": 3,
      "byteOffset": 11200,
      "componentType": 5126,
      "count": 1154,
      "max": [
        0.9998586773872375,
        0.7411776781082153,
        0.9999374747276306,
        1.0
      ],
      "min": [
        -0.8946782350540161,
        -0.9999622106552124,
        -0.996712327003479,
        -1.0
      ],
      "type": "VEC4"
    },
    {
      "bufferView": 1,
      "byteOffset": 5600,
      "componentType": 5126,
      "count": 1154,
      "max": [
        0.16776899993419647,
        0.026738500222563744
      ],
      "min": [
        0.09612180292606354,
        2.3655600500660512e-07
      ],
      "type": "VEC2"
    },
    {
      "bufferView": 0,
      "byteOffset": 14688,
      "componentType": 5125,
      "count": 6576,
      "type": "SCALAR"
    },
    {
      "bufferView": 2,
      "byteOffset": 44496,
      "componentType": 5126,
      "count": 2524,
      "max": [
        -0.30205801129341125,
        0.0259396992623806,
        -0.00209088996052742
      ],
      "min": [
        -0.5597389936447144,
        -0.04731769859790802,
        -0.02347859926521778
      ],
      "type": "VEC3"
    },
    {
      "bufferView": 2,
      "byteOffset": 74784,
      "componentType": 5126,
      "count": 2524,
      "max": [
        0.9999903440475464,
        0.9999639987945557,
        1.0
      ],
      "min": [
        -0.9999903440475464,
        -0.9999837875366211,
        -1.0
      ],
      "type": "VEC3"
    },
    {
      "bufferView": 3,
      "byteOffset": 29664,
      "componentType": 5126,
      "count": 2524,
      "max": [
        0.9999966621398926,
        0.9999984502792358,
        0.9992709755897522,
        1.0
      ],
      "min": [
        -0.9999086856842041,
        -0.9999999403953552,
        -0.999955952167511,
        -1.0
      ],
      "type": "VEC4"
    },
    {
      "bufferView": 1,
      "byteOffset": 14832,
      "componentType": 5126,
      "count": 2524,
      "max": [
        0.4371640086174011,
        0.08158840239048004
      ],
      "min": [
        0.0,
        0.0
      ],
      "type": "VEC2"
    },
    {
      "bufferView": 0,
      "byteOffset": 40992,
      "componentType": 5125,
      "count": 14016,
      "type": "SCALAR"
    },
    {
      "bufferView": 2,
      "byteOffset": 105072,
      "componentType": 5126,
      "count": 3185,
      "max": [
        1.0,
        0.12115799635648727,
        0.004528129938989878
      ],
      "min": [
        -0.5556120276451111,
        0.07570289820432663,
        -0.0300976000726223
      ],
      "type": "VEC3"
    },
    {
      "bufferView": 2,
      "byteOffset": 143292,
      "componentType": 5126,
      "count": 3185,
      "max": [
        1.0,
        1.0,
        1.0
      ],
      "min": [
        -1.0,
        -1.0,
        -1.0
      ],
      "type": "VEC3"
    },
    {
      "bufferView": 3,
      "byteOffset": 70048,
      "componentType": 5126,
      "count": 3185,
      "max": [
        0.9999998211860657,
        0.9999992251396179,
        0.9999948740005493,
        1.0
      ],
      "min": [
        -0.9999728798866272,
        -0.9999057650566101,
        -0.9999988675117493,
        -1.0
      ],
      "type": "VEC4"
    },
    {
      "bufferView": 1,
      "byteOffset": 35024,
      "componentType": 5126,
      "count": 3185,
      "max": [
        0.9999989867210388,
        0.9875609874725342
      ],
      "min": [
        0.0,
        0.0
      ],
      "type": "VEC2"
    },
    {
      "bufferView": 0,
      "byteOffset": 97056,
      "componentType": 5125,
      "count": 17520,
      "type": "SCALAR"
    },
    {
      "bufferView": 2,
      "byteOffset": 181512,
      "componentType": 5126,
      "count": 454,
      "max": [
        -0.9509400129318237,
        0.07160910218954086,
        0.02012689970433712
      ],
      "min": [
        -1.0,
        -0.12115799635648727,
        -0.04569629952311516
      ],
      "type": "VEC3"
    },
    {
      "bufferView": 2,
      "byteOffset": 186960,
      "componentType": 5126,
      "count": 454,
      "max": [
        0.9999998807907104,
        0.9999604821205139,
        0.99981290102005
      ],
      "min": [
        -0.9981356263160706,
        -0.9966964721679688,
        -0.99981290102005
      ],
      "type": "VEC3"
    },
    {
      "bufferView": 3,
      "byteOffset": 121008,
      "componentType": 5126,
      "count": 454,
      "max": [
        0.9813534617424011,
        0.9985102415084839,
        0.9996964335441589,
        1.0
      ],
      "min": [
        -0.9968763589859009,
        -0.9981837272644043,
        -0.9954207539558411,
        1.0
      ],
      "type": "VEC4"
    },
    {
      "bufferView": 1,
      "byteOffset": 60504,
      "componentType": 5126,
      "count": 454,
      "max": [
        0.9999989867210388,
        0.9941650032997131
      ],
      "min": [
        2.3841900542720396e-07,
        2.682209867543861e-07
      ],
      "type": "VEC2"
    },
    {
      "bufferView": 0,
      "byteOffset": 167136,
      "componentType": 5125,
      "count": 2496,
      "type": "SCALAR"
    },
    {
      "bufferView": 2,
      "byteOffset": 192408,
      "componentType": 5126,
      "count": 3651,
      "max": [
        0.25315698981285095,
        0.0944192036986351,
        0.023175999522209167
      ],
      "min": [
        -0.9681919813156128,
        -0.11024899780750275,
        -0.04874550178647041
      ],
      "type": "VEC3"
    },
    {
      "bufferView": 2,
      "byteOffset": 236220,
      "componentType": 5126,
      "count": 3651,
      "max": [
        1.0,
        0.9999989867210388,
        1.0
      ],
      "min": [
        -0.9999997615814209,
        -0.9996128678321838,
        -1.0
      ],
      "type": "VEC3"
    },
    {
      "bufferView": 3,
      "byteOffset": 128272,
      "componentType": 5126,
      "count": 3651,
      "max": [
        0.9999625086784363,
        0.9999349117279053,
        0.9998776316642761,
        1.0
      ],
      "min": [
        -0.9999926686286926,
        -0.9999265670776367,
        -0.9943376779556274,
        -1.0
      ],
      "type": "VEC4"
    },
    {
      "bufferView": 1,
      "byteOffset": 64136,
      "componentType": 5126,
      "count": 3651,
      "max": [
        0.9999989867210388,
        0.9684929847717285
      ],
      "min": [
        0.0,
        5.96045985901128e-08
      ],
      "type": "VEC2"
    },
    {
      "bufferView": 0,
      "byteOffset": 177120,
      "componentType": 5125,
      "count": 21120,
      "type": "SCALAR"
    }
  ],
  "asset": {
    "extras": {
      "author": "Samantha Michelson (https://sketchfab.com/SMich017)",
      "license": "CC-BY-4.0 (http://creativecommons.org/licenses/by/4.0/)",
      "source": "https://sketchfab.com/3d-models/rifle-8e67b2941d3b4bc18772fe4665ee94aa",
      "title": "Rifle"
    },
    "generator": "Sketchfab-14.32.1",
    "version": "2.0"
  },
  "bufferViews": [
    {
      "buffer": 0,
      "byteLength": 261600,
      "name": "floatBufferViews",
      "target": 34963
    },
    {
      "buffer": 0,
      "byteLength": 93344,
      "byteOffset": 261600,
      "byteStride": 8,
      "name": "floatBufferViews",
      "target": 34962
    },
    {
      "buffer": 0,
      "byteLength": 280032,
      "byteOffset": 354944,
      "byteStride": 12,
      "name": "floatBufferViews",
      "target": 34962
    },
    {
      "buffer": 0,
      "byteLength": 186688,
      "byteOffset": 634976,
      "byteStride": 16,
      "name": "floatBufferViews",
      "target": 34962
    }
  ],
  "buffers": [
    {
      "byteLength": 821664,
      "uri": "scene.bin"
    }
  ],
  "images": [
    {
      "uri": "textures/Material__26_baseColor.jpeg"
    },
    {
      "uri": "textures/Material__26_metallicRoughness.png"
    },
    {
      "uri": "textures/Material__26_normal.png"
    },
    {
      "uri": "textures/Material__28_baseColor.jpeg"
    },
    {
      "uri": "textures/Material__28_metallicRoughness.png"
    },
    {
      "uri": "textures/Material__28_normal.png"
    },
    {
      "uri": "textures/Material__27_baseColor.jpeg"
    },
    {
      "uri": "textures/Material__27_metallicRoughness.png"
    },
    {
      "uri": "textures/Material__27_normal.png"
    }
  ],
  "materials": [
    {
      "doubleSided": true,
      "name": "Material__26",
      "normalTexture": {
        "index": 2
      },
      "pbrMetallicRoughness": {
        "baseColorTexture": {
          "index": 0
        },
        "metallicRoughnessTexture": {
          "index": 1
        }
      }
    },
    {
      "doubleSided": true,
      "name": "Material__28",
      "normalTexture": {
        "index": 5
      },
      "pbrMetallicRoughness": {
        "baseColorTexture": {
          "index": 3
        },
        "metallicRoughnessTexture": {
          "index": 4
        }
      }
    },
    {
      "doubleSided": true,
      "name": "Material__27",
      "normalTexture": {
        "index": 8
      },
      "pbrMetallicRoughness": {
        "baseColorTexture": {
          "index": 6
        },
        "metallicRoughnessTexture": {
          "index": 7
        }
      }
    }
  ],
  "meshes": [
    {
      "name": "defaultMaterial",
      "primitives": [
        {
          "attributes": {
            "NORMAL": 1,
            "POSITION": 0,
            "TANGENT": 2,
            "TEXCOORD_0": 3
          },
          "indices": 4,
          "material": 2,
          "mode": 4
        }
      ]
    },
    {
      "name": "defaultMaterial",
      "primitives": [
        {
          "attributes": {
            "NORMAL": 6,
            "POSITION": 5,
            "TANGENT": 7,
            "TEXCOORD_0": 8
          },
          "indices": 9,
          "material": 2,
          "mode": 4
        }
      ]
    },
    {
      "name": "defaultMaterial",
      "primitives": [
        {
          "attributes": {
            "NORMAL": 11,
            "POSITION": 10,
            "TANGENT": 12,
            "TEXCOORD_0": 13
          },
          "indices": 14,
          "material": 2,
          "mode": 4
        }
      ]
    },
    {
      "name": "defaultMaterial",
      "primitives": [
        {
          "attributes": {
            "NORMAL": 16,
            "POSITION": 15,
            "TANGENT": 17,
            "TEXCOORD_0": 18
          },
          "indices": 19,
          "material": 2,
          "mode": 4
        }
      ]
    },
    {
      "name": "defaultMaterial",
      "primitives": [
        {
          "attributes": {
            "NORMAL": 21,
            "POSITION": 20,
            "TANGENT": 22,
            "TEXCOORD_0": 23
          },
          "indices": 24,
          "material": 1,
          "mode": 4
        }
      ]
    },
    {
      "name": "defaultMaterial",
      "primitives": [
        {
          "attributes": {
            "NORMAL": 26,
            "POSITION": 25,
            "TANGENT": 27,
            "TEXCOORD_0": 28
          },
          "indices": 29,
          "material": 0,
          "mode": 4
        }
      ]
    }
  ],
  "nodes": [
    {
      "children": [
        1
      ],
      "matrix": [
        0.9418833255767822,
        0.0,
        0.0,
        0.0,
        0.0,
        2.0914011091317125e-16,
        -0.9418833255767822,
        0.0,
        0.0,
        0.9418833255767822,
        2.0914011091317125e-16,
        0.0,
        0.0,
        0.0,
        0.0,
        1.0
      ],
      "name": "Sketchfab_model"
    },
    {
      "children": [
        2,
        4,
        6,
        8,
        10,
        12
      ],
      "matrix": [
        1.0,
        0.0,
        0.0,
        0.0,
        0.0,
        -4.371139006309477e-08,
        0.999999999999999,
        0.0,
        0.0,
        -0.999999999999999,
        -4.371139006309477e-08,
        0.0,
        0.0,
        0.0,
        0.0,
        1.0
      ],
      "name": "Collada visual scene group"
    },
    {
      "children": [
        3
      ],
      "name": "Sphere001"
    },
    {
      "mesh": 0,
      "name": "defaultMaterial"
    },
    {
      "children": [
        5
      ],
      "name": "Line003"
    },
    {
      "mesh": 1,
      "name": "defaultMaterial"
    },
    {
      "children": [
        7
      ],
      "name": "Line002"
    },
    {
      "mesh": 2,
      "name": "defaultMaterial"
    },
    {
      "children": [
        9
      ],
      "name": "Line001"
    },
    {
      "mesh": 3,
      "name": "defaultMaterial"
    },
    {
      "children": [
        11
      ],
      "name": "Cylinder001"
    },
    {
      "mesh": 4,
      "name": "defaultMaterial"
    },
    {
      "children": [
        13
      ],
      "name": "Cylinder001"
    },
    {
      "mesh": 5,
      "name": "defaultMaterial"
    }
  ],
  "samplers": [
    {
      "magFilter": 9729,
      "minFilter": 9987,
      "wrapS": 10497,
      "wrapT": 10497
    }
  ],
  "scene": 0,
  "scenes": [
    {
      "name": "Sketchfab_Scene",
      "nodes": [
        0
      ]
    }
  ],
  "textures": [
    {
      "sampler": 0,
      "source": 0
    },
    {
      "sampler": 0,
      "source": 1
    },
    {
      "sampler": 0,
      "source": 2
    },
    {
      "sampler": 0,
      "source": 3
    },
    {
      "sampler": 0,
      "source": 4
    },
    {
      "sampler": 0,
      "source": 5
    },
    {
      "sampler": 0,
      "source": 6
    },
    {
      "sampler": 0,
      "source": 7
    },
    {
      "sampler": 0,
      "source": 8
    }
  ]
}
